<mxfile host="fb43125a-63f9-4563-9d10-31bfecd5e8dc" modified="2020-07-20T09:08:41.022Z" agent="5.0 (Macintosh; Intel Mac OS X 10_15_4) AppleWebKit/537.36 (KHTML, like Gecko) Code/1.47.2 Chrome/78.0.3904.130 Electron/7.3.2 Safari/537.36" etag="8Pw4k4Mjh1saWYunTHMb" version="13.1.3">
    <diagram id="6hGFLwfOUW9BJ-s0fimq" name="Page-1">
        <mxGraphModel dx="771" dy="617" grid="1" gridSize="10" guides="1" tooltips="1" connect="1" arrows="1" fold="1" page="1" pageScale="1" pageWidth="827" pageHeight="1169" math="0" shadow="0">
            <root>
                <mxCell id="0"/>
                <mxCell id="1" parent="0"/>
                <mxCell id="2" value="POST /create_post" style="rounded=1;whiteSpace=wrap;html=1;fillColor=#f0a30a;strokeColor=#BD7000;fontColor=#ffffff;" vertex="1" parent="1">
                    <mxGeometry x="170" y="200" width="140" height="60" as="geometry"/>
                </mxCell>
                <mxCell id="3" value="GET /post" style="rounded=1;whiteSpace=wrap;html=1;fillColor=#1ba1e2;strokeColor=#006EAF;fontColor=#ffffff;" vertex="1" parent="1">
                    <mxGeometry x="170" y="40" width="140" height="60" as="geometry"/>
                </mxCell>
                <mxCell id="4" value="DynamoDB" style="shape=cylinder;whiteSpace=wrap;html=1;boundedLbl=1;backgroundOutline=1;" vertex="1" parent="1">
                    <mxGeometry x="560" y="40" width="90" height="80" as="geometry"/>
                </mxCell>
                <mxCell id="5" value="API gateway" style="ellipse;whiteSpace=wrap;html=1;aspect=fixed;" vertex="1" parent="1">
                    <mxGeometry x="40" y="40" width="90" height="90" as="geometry"/>
                </mxCell>
                <mxCell id="7" value="GET /profile" style="rounded=1;whiteSpace=wrap;html=1;fillColor=#1ba1e2;strokeColor=#006EAF;fontColor=#ffffff;" vertex="1" parent="1">
                    <mxGeometry x="170" y="120" width="140" height="60" as="geometry"/>
                </mxCell>
                <mxCell id="8" value="S3 Bucket" style="html=1;whiteSpace=wrap;aspect=fixed;shape=isoCube;backgroundOutline=1;" vertex="1" parent="1">
                    <mxGeometry x="560" y="150" width="90" height="100" as="geometry"/>
                </mxCell>
                <mxCell id="9" value="POST /edit/userid" style="rounded=1;whiteSpace=wrap;html=1;fillColor=#f0a30a;strokeColor=#BD7000;fontColor=#ffffff;" vertex="1" parent="1">
                    <mxGeometry x="170" y="280" width="140" height="60" as="geometry"/>
                </mxCell>
                <mxCell id="10" value="POST /comment/postid" style="rounded=1;whiteSpace=wrap;html=1;fillColor=#f0a30a;strokeColor=#BD7000;fontColor=#ffffff;" vertex="1" parent="1">
                    <mxGeometry x="170" y="360" width="160" height="60" as="geometry"/>
                </mxCell>
                <mxCell id="11" value="POST /reply/commentid" style="rounded=1;whiteSpace=wrap;html=1;fillColor=#f0a30a;strokeColor=#BD7000;fontColor=#ffffff;" vertex="1" parent="1">
                    <mxGeometry x="170" y="440" width="160" height="60" as="geometry"/>
                </mxCell>
                <mxCell id="12" value="POST /like/postid" style="rounded=1;whiteSpace=wrap;html=1;fillColor=#f0a30a;strokeColor=#BD7000;fontColor=#ffffff;" vertex="1" parent="1">
                    <mxGeometry x="350" y="360" width="160" height="60" as="geometry"/>
                </mxCell>
                <mxCell id="13" value="GET /notifications" style="rounded=1;whiteSpace=wrap;html=1;fillColor=#1ba1e2;strokeColor=#006EAF;fontColor=#ffffff;" vertex="1" parent="1">
                    <mxGeometry x="344" y="120" width="140" height="60" as="geometry"/>
                </mxCell>
                <mxCell id="14" value="POST /follow/userid" style="rounded=1;whiteSpace=wrap;html=1;fillColor=#f0a30a;strokeColor=#BD7000;fontColor=#ffffff;" vertex="1" parent="1">
                    <mxGeometry x="350" y="280" width="140" height="60" as="geometry"/>
                </mxCell>
                <mxCell id="15" value="POST /location" style="rounded=1;whiteSpace=wrap;html=1;fillColor=#f0a30a;strokeColor=#BD7000;fontColor=#ffffff;" vertex="1" parent="1">
                    <mxGeometry x="350" y="200" width="140" height="60" as="geometry"/>
                </mxCell>
                <mxCell id="16" value="GET /query" style="rounded=1;whiteSpace=wrap;html=1;fillColor=#1ba1e2;strokeColor=#006EAF;fontColor=#ffffff;" vertex="1" parent="1">
                    <mxGeometry x="344" y="40" width="140" height="60" as="geometry"/>
                </mxCell>
            </root>
        </mxGraphModel>
    </diagram>
</mxfile>